<svg xmlns="http://www.w3.org/2000/svg" width="900" height="540" viewBox="0 0 900 540">
<rect width="100%" height="100%" fill="#ffffff"/>
<text x="450.0" y="28" text-anchor="middle" font-family="Arial, sans-serif" font-size="22" font-weight="700">Harbor berth sweep from tutorial/tut_4_1.py model</text>
<line x1="82" y1="58" x2="82" y2="466" stroke="#222" stroke-width="1.2"/>
<line x1="82" y1="466" x2="868" y2="466" stroke="#222" stroke-width="1.2"/>
<line x1="82" y1="466.00" x2="868" y2="466.00" stroke="#e6e8eb" stroke-width="1"/>
<text x="72" y="470.00" text-anchor="end" font-family="Arial, sans-serif" font-size="12" fill="#333">0.0</text>
<line x1="82" y1="384.40" x2="868" y2="384.40" stroke="#e6e8eb" stroke-width="1"/>
<text x="72" y="388.40" text-anchor="end" font-family="Arial, sans-serif" font-size="12" fill="#333">446.9</text>
<line x1="82" y1="302.80" x2="868" y2="302.80" stroke="#e6e8eb" stroke-width="1"/>
<text x="72" y="306.80" text-anchor="end" font-family="Arial, sans-serif" font-size="12" fill="#333">893.7</text>
<line x1="82" y1="221.20" x2="868" y2="221.20" stroke="#e6e8eb" stroke-width="1"/>
<text x="72" y="225.20" text-anchor="end" font-family="Arial, sans-serif" font-size="12" fill="#333">1340.6</text>
<line x1="82" y1="139.60" x2="868" y2="139.60" stroke="#e6e8eb" stroke-width="1"/>
<text x="72" y="143.60" text-anchor="end" font-family="Arial, sans-serif" font-size="12" fill="#333">1787.4</text>
<line x1="82" y1="58.00" x2="868" y2="58.00" stroke="#e6e8eb" stroke-width="1"/>
<text x="72" y="62.00" text-anchor="end" font-family="Arial, sans-serif" font-size="12" fill="#333">2234.3</text>
<line x1="82.00" y1="466" x2="82.00" y2="471" stroke="#222"/>
<text x="82.00" y="490" text-anchor="middle" font-family="Arial, sans-serif" font-size="12" fill="#333">1</text>
<line x1="239.20" y1="466" x2="239.20" y2="471" stroke="#222"/>
<text x="239.20" y="490" text-anchor="middle" font-family="Arial, sans-serif" font-size="12" fill="#333">1.8</text>
<line x1="396.40" y1="466" x2="396.40" y2="471" stroke="#222"/>
<text x="396.40" y="490" text-anchor="middle" font-family="Arial, sans-serif" font-size="12" fill="#333">2.6</text>
<line x1="553.60" y1="466" x2="553.60" y2="471" stroke="#222"/>
<text x="553.60" y="490" text-anchor="middle" font-family="Arial, sans-serif" font-size="12" fill="#333">3.4</text>
<line x1="710.80" y1="466" x2="710.80" y2="471" stroke="#222"/>
<text x="710.80" y="490" text-anchor="middle" font-family="Arial, sans-serif" font-size="12" fill="#333">4.2</text>
<line x1="868.00" y1="466" x2="868.00" y2="471" stroke="#222"/>
<text x="868.00" y="490" text-anchor="middle" font-family="Arial, sans-serif" font-size="12" fill="#333">5</text>
<text x="450.0" y="516" text-anchor="middle" font-family="Arial, sans-serif" font-size="15" fill="#111">large berths</text>
<text transform="translate(22 270.0) rotate(-90)" text-anchor="middle" font-family="Arial, sans-serif" font-size="15" fill="#111">mean time in system (hours)</text>
<line x1="82.00" y1="464.03" x2="82.00" y2="464.01" stroke="#1769aa" stroke-width="1" opacity="0.55"/>
<line x1="78.00" y1="464.03" x2="86.00" y2="464.03" stroke="#1769aa" stroke-width="1" opacity="0.55"/>
<line x1="78.00" y1="464.01" x2="86.00" y2="464.01" stroke="#1769aa" stroke-width="1" opacity="0.55"/>
<line x1="278.50" y1="464.04" x2="278.50" y2="464.02" stroke="#1769aa" stroke-width="1" opacity="0.55"/>
<line x1="274.50" y1="464.04" x2="282.50" y2="464.04" stroke="#1769aa" stroke-width="1" opacity="0.55"/>
<line x1="274.50" y1="464.02" x2="282.50" y2="464.02" stroke="#1769aa" stroke-width="1" opacity="0.55"/>
<line x1="475.00" y1="464.03" x2="475.00" y2="464.00" stroke="#1769aa" stroke-width="1" opacity="0.55"/>
<line x1="471.00" y1="464.03" x2="479.00" y2="464.03" stroke="#1769aa" stroke-width="1" opacity="0.55"/>
<line x1="471.00" y1="464.00" x2="479.00" y2="464.00" stroke="#1769aa" stroke-width="1" opacity="0.55"/>
<line x1="671.50" y1="464.03" x2="671.50" y2="464.00" stroke="#1769aa" stroke-width="1" opacity="0.55"/>
<line x1="667.50" y1="464.03" x2="675.50" y2="464.03" stroke="#1769aa" stroke-width="1" opacity="0.55"/>
<line x1="667.50" y1="464.00" x2="675.50" y2="464.00" stroke="#1769aa" stroke-width="1" opacity="0.55"/>
<line x1="868.00" y1="464.03" x2="868.00" y2="464.00" stroke="#1769aa" stroke-width="1" opacity="0.55"/>
<line x1="864.00" y1="464.03" x2="872.00" y2="464.03" stroke="#1769aa" stroke-width="1" opacity="0.55"/>
<line x1="864.00" y1="464.00" x2="872.00" y2="464.00" stroke="#1769aa" stroke-width="1" opacity="0.55"/>
<polyline points="82.00,464.02 278.50,464.03 475.00,464.01 671.50,464.02 868.00,464.02" fill="none" stroke="#1769aa" stroke-width="2.4"/>
<circle cx="82.00" cy="464.02" r="3" fill="#1769aa"/>
<circle cx="278.50" cy="464.03" r="3" fill="#1769aa"/>
<circle cx="475.00" cy="464.01" r="3" fill="#1769aa"/>
<circle cx="671.50" cy="464.02" r="3" fill="#1769aa"/>
<circle cx="868.00" cy="464.02" r="3" fill="#1769aa"/>
<line x1="96" y1="78" x2="124" y2="78" stroke="#1769aa" stroke-width="2.4"/>
<text x="134" y="82" font-family="Arial, sans-serif" font-size="13" fill="#111">small ships +/-95%</text>
<line x1="82.00" y1="109.69" x2="82.00" y2="88.22" stroke="#c43c39" stroke-width="1" opacity="0.55"/>
<line x1="78.00" y1="109.69" x2="86.00" y2="109.69" stroke="#c43c39" stroke-width="1" opacity="0.55"/>
<line x1="78.00" y1="88.22" x2="86.00" y2="88.22" stroke="#c43c39" stroke-width="1" opacity="0.55"/>
<line x1="278.50" y1="457.75" x2="278.50" y2="451.85" stroke="#c43c39" stroke-width="1" opacity="0.55"/>
<line x1="274.50" y1="457.75" x2="282.50" y2="457.75" stroke="#c43c39" stroke-width="1" opacity="0.55"/>
<line x1="274.50" y1="451.85" x2="282.50" y2="451.85" stroke="#c43c39" stroke-width="1" opacity="0.55"/>
<line x1="475.00" y1="462.88" x2="475.00" y2="462.66" stroke="#c43c39" stroke-width="1" opacity="0.55"/>
<line x1="471.00" y1="462.88" x2="479.00" y2="462.88" stroke="#c43c39" stroke-width="1" opacity="0.55"/>
<line x1="471.00" y1="462.66" x2="479.00" y2="462.66" stroke="#c43c39" stroke-width="1" opacity="0.55"/>
<line x1="671.50" y1="463.22" x2="671.50" y2="463.19" stroke="#c43c39" stroke-width="1" opacity="0.55"/>
<line x1="667.50" y1="463.22" x2="675.50" y2="463.22" stroke="#c43c39" stroke-width="1" opacity="0.55"/>
<line x1="667.50" y1="463.19" x2="675.50" y2="463.19" stroke="#c43c39" stroke-width="1" opacity="0.55"/>
<line x1="868.00" y1="463.31" x2="868.00" y2="463.28" stroke="#c43c39" stroke-width="1" opacity="0.55"/>
<line x1="864.00" y1="463.31" x2="872.00" y2="463.31" stroke="#c43c39" stroke-width="1" opacity="0.55"/>
<line x1="864.00" y1="463.28" x2="872.00" y2="463.28" stroke="#c43c39" stroke-width="1" opacity="0.55"/>
<polyline points="82.00,98.95 278.50,454.80 475.00,462.77 671.50,463.21 868.00,463.30" fill="none" stroke="#c43c39" stroke-width="2.4"/>
<circle cx="82.00" cy="98.95" r="3" fill="#c43c39"/>
<circle cx="278.50" cy="454.80" r="3" fill="#c43c39"/>
<circle cx="475.00" cy="462.77" r="3" fill="#c43c39"/>
<circle cx="671.50" cy="463.21" r="3" fill="#c43c39"/>
<circle cx="868.00" cy="463.30" r="3" fill="#c43c39"/>
<line x1="96" y1="100" x2="124" y2="100" stroke="#c43c39" stroke-width="2.4"/>
<text x="134" y="104" font-family="Arial, sans-serif" font-size="13" fill="#111">large ships +/-95%</text>
</svg>